<svg id="Layer_1" data-name="Layer 1" xmlns="http://www.w3.org/2000/svg" viewBox="0 0 91.974 87"><defs><style>.cls-1{fill:none;}.cls-2{fill:#fff;}</style></defs><title>Icon_White_wCA</title><rect class="cls-1" width="91.974" height="87"/><g id="IMAGO"><circle class="cls-2" cx="64.381" cy="59.423" r="9.198"/><path class="cls-2" d="M512.352,358.8a9.2,9.2,0,0,0-7.142,14.124,4.54,4.54,0,0,1,.053,4.706l-6.185,10.713a4.675,4.675,0,0,1-4.219,2.294,9.706,9.706,0,0,0-1.236.041,9.189,9.189,0,1,0,8.693,4.2,4.54,4.54,0,0,1-.053-4.706l6.2-10.719a4.654,4.654,0,0,1,4.213-2.288,9.8,9.8,0,0,0,1.242-.041,9.2,9.2,0,0,0-1.563-18.325Z" transform="translate(-466.967 -340.41)"/></g></svg>